<?xml version="1.0" encoding="UTF-8" standalone="no"?>
<!-- Uploaded to: SVG Repo, www.svgrepo.com, Generator: SVG Repo Mixer Tools -->

<svg
   fill="#000000"
   height="800px"
   width="800px"
   version="1.1"
   id="Capa_1"
   viewBox="0 0 496.565 496.565"
   xml:space="preserve"
   sodipodi:docname="SAFe-Train.svg"
   inkscape:export-filename="SAFe-Train.png"
   inkscape:export-xdpi="96"
   inkscape:export-ydpi="96"
   inkscape:version="1.2.1 (9c6d41e410, 2022-07-14)"
   xmlns:inkscape="http://www.inkscape.org/namespaces/inkscape"
   xmlns:sodipodi="http://sodipodi.sourceforge.net/DTD/sodipodi-0.dtd"
   xmlns="http://www.w3.org/2000/svg"
   xmlns:svg="http://www.w3.org/2000/svg"><defs
   id="defs15" /><sodipodi:namedview
   id="namedview13"
   pagecolor="#ffffff"
   bordercolor="#000000"
   borderopacity="0.25"
   inkscape:showpageshadow="2"
   inkscape:pageopacity="0.0"
   inkscape:pagecheckerboard="0"
   inkscape:deskcolor="#d1d1d1"
   showgrid="false"
   inkscape:zoom="1.24875"
   inkscape:cx="412.01201"
   inkscape:cy="400.8008"
   inkscape:window-width="1670"
   inkscape:window-height="1211"
   inkscape:window-x="3421"
   inkscape:window-y="54"
   inkscape:window-maximized="0"
   inkscape:current-layer="g10" />
<g
   id="g10"
   style="display:inline">
	<path
   d="m 495.442,369.213 -95.17,-123.279 c -1.111,-1.439 -3.014,-2.012 -4.736,-1.426 -1.721,0.587 -2.878,2.204 -2.878,4.022 v 85.863 h -6.584 V 202.88 c 0,-12.724 -10.085,-23.131 -22.681,-23.66 v -54.25 c 0,-10.865 -7.356,-20.038 -17.347,-22.817 l 22.548,-31.368 c 0.52,-0.723 0.799,-1.59 0.799,-2.48 0,-13.061 -10.625,-23.686 -23.685,-23.686 h -35.791 c -13.06,0 -23.685,10.625 -23.685,23.686 0,0.891 0.279,1.758 0.799,2.48 l 22.548,31.368 c -9.991,2.779 -17.347,11.952 -17.347,22.817 v 54.225 H 231.673 V 69.868 c 0,-12.82 -10.43,-23.25 -23.25,-23.25 H 56.837 c -12.82,0 -23.25,10.43 -23.25,23.25 v 111.818 c -7.774,3.89 -13.127,11.926 -13.127,21.193 V 334.393 H 15.997 C 7.176,334.394 0,341.57 0,350.39 c 0,8.82 7.176,15.996 15.997,15.996 h 4.658 c 0.968,7.854 5.851,14.736 12.869,18.277 -1.335,4.632 -2.065,9.518 -2.065,14.572 0,29.064 23.646,52.711 52.711,52.711 29.065,0 52.711,-23.647 52.711,-52.711 0,-4.137 -0.494,-8.158 -1.4,-12.023 h 8.182 c -0.906,3.865 -1.4,7.887 -1.4,12.023 0,29.064 23.646,52.711 52.71,52.711 29.065,0 52.711,-23.647 52.711,-52.711 0,-4.137 -0.494,-8.158 -1.4,-12.023 h 8.182 c -0.906,3.865 -1.4,7.887 -1.4,12.023 0,29.064 23.646,52.711 52.711,52.711 29.065,0 52.711,-23.647 52.711,-52.711 0,-4.137 -0.494,-8.158 -1.4,-12.023 h 5.301 c 12.092,0 22.09,-9.11 23.507,-20.826 h 6.763 v 5.705 c 0,2.348 1.903,4.25 4.25,4.25 h 95.387 c 0.006,0 0.012,0 0.02,0 2.347,0 4.25,-1.902 4.25,-4.25 -10e-4,-1.11 -0.427,-2.121 -1.124,-2.878 z M 309.918,53.118 h 35.791 c 7.938,0 14.472,6.122 15.13,13.893 l -24.636,34.273 H 319.424 L 294.788,67.011 c 0.657,-7.771 7.192,-13.893 15.13,-13.893 z m -9.185,71.852 c 0,-8.373 6.812,-15.186 15.185,-15.186 h 23.791 c 8.373,0 15.185,6.813 15.185,15.186 v 54.225 H 300.733 Z M 42.087,69.868 c 0,-8.133 6.617,-14.75 14.75,-14.75 h 151.587 c 8.133,0 14.75,6.617 14.75,14.75 V 179.194 H 44.146 c -0.694,0 -1.379,0.036 -2.059,0.095 z M 28.96,307.784 h 90.01 c 2.347,0 4.25,-1.902 4.25,-4.25 0,-2.348 -1.903,-4.25 -4.25,-4.25 H 28.96 v -67.637 h 30.465 c 2.347,0 4.25,-1.902 4.25,-4.25 0,-2.348 -1.903,-4.25 -4.25,-4.25 H 28.96 V 202.88 c 0,-8.373 6.812,-15.186 15.186,-15.186 h 318.243 c 8.373,0 15.186,6.813 15.186,15.186 V 334.394 H 28.96 Z m 0.275,58.602 h 13.757 c -2.518,3.15 -4.688,6.588 -6.439,10.266 -3.782,-2.198 -6.481,-5.954 -7.318,-10.266 z m 54.935,77.061 c -24.378,0 -44.211,-19.833 -44.211,-44.211 0,-24.378 19.833,-44.211 44.211,-44.211 24.378,0 44.211,19.833 44.211,44.211 0,24.378 -19.833,44.211 -44.211,44.211 z m 48.55,-64.735 c -1.891,-4.457 -4.389,-8.594 -7.372,-12.326 h 28.447 c -2.984,3.732 -5.481,7.869 -7.372,12.326 z m 62.253,64.735 c -24.377,0 -44.21,-19.833 -44.21,-44.211 0,-24.378 19.833,-44.211 44.21,-44.211 24.378,0 44.211,19.833 44.211,44.211 0,24.378 -19.833,44.211 -44.211,44.211 z m 48.55,-64.735 c -1.891,-4.457 -4.389,-8.594 -7.372,-12.326 h 28.447 c -2.983,3.732 -5.481,7.869 -7.372,12.326 z m 62.253,64.735 c -24.378,0 -44.211,-19.833 -44.211,-44.211 0,-24.378 19.833,-44.211 44.211,-44.211 24.378,0 44.211,19.833 44.211,44.211 0,24.378 -19.833,44.211 -44.211,44.211 z m 56.613,-64.735 h -8.062 c -1.891,-4.457 -4.389,-8.594 -7.372,-12.326 h 30.35 c -1.342,7.011 -7.52,12.326 -14.916,12.326 z m 19.435,-20.826 h -43.416 c -8.983,-7.104 -20.316,-11.361 -32.632,-11.361 -12.316,0 -23.648,4.257 -32.632,11.361 h -45.54 c -8.983,-7.104 -20.316,-11.361 -32.632,-11.361 -12.316,0 -23.648,4.257 -32.631,11.361 h -45.54 c -8.983,-7.104 -20.316,-11.361 -32.632,-11.361 -12.315,0 -23.648,4.257 -32.632,11.361 H 24.71 15.997 c -4.134,0 -7.497,-3.362 -7.497,-7.496 0,-4.134 3.363,-7.496 7.497,-7.496 h 8.713 357.114 10.834 v 14.992 z m 19.334,9.955 v -5.705 -23.492 -77.654 l 82.487,106.851 z"
   id="path2" />
	<path
   d="m 78.425,165.118 h 108 c 12.82,0 23.25,-10.43 23.25,-23.25 V 91.2 c 0,-12.82 -10.43,-23.25 -23.25,-23.25 h -108 c -12.82,0 -23.25,10.43 -23.25,23.25 v 50.668 c 0,12.821 10.43,23.25 23.25,23.25 z M 63.675,91.2 c 0,-8.133 6.617,-14.75 14.75,-14.75 h 108 c 8.133,0 14.75,6.617 14.75,14.75 v 50.668 c 0,8.133 -6.617,14.75 -14.75,14.75 h -108 c -8.133,0 -14.75,-6.617 -14.75,-14.75 V 91.2 Z"
   id="path4" />
	<path
   d="m 308.298,213.585 c -21.826,0 -39.583,17.757 -39.583,39.584 0,21.825 17.757,39.582 39.583,39.582 21.827,0 39.584,-17.757 39.584,-39.582 0,-21.827 -17.757,-39.584 -39.584,-39.584 z m 0,70.666 c -17.139,0 -31.083,-13.943 -31.083,-31.082 0,-17.14 13.944,-31.084 31.083,-31.084 17.14,0 31.084,13.944 31.084,31.084 0,17.139 -13.944,31.082 -31.084,31.082 z"
   id="path6" />
	<path
   d="m 194.973,299.284 h -48.46 c -2.347,0 -4.25,1.902 -4.25,4.25 0,2.348 1.903,4.25 4.25,4.25 h 48.46 c 2.347,0 4.25,-1.902 4.25,-4.25 0,-2.347 -1.903,-4.25 -4.25,-4.25 z"
   id="path8" />
</g>
</svg>
