<?xml version="1.0" encoding="UTF-8" standalone="no"?>
<!-- Uploaded to: SVG Repo, www.svgrepo.com, Generator: SVG Repo Mixer Tools -->

<svg
   fill="#000000"
   height="48"
   width="48"
   version="1.1"
   id="Capa_1"
   viewBox="0 0 17.31708 17.31708"
   xml:space="preserve"
   sodipodi:docname="safetrain48.svg"
   inkscape:version="1.2.1 (9c6d41e410, 2022-07-14)"
   inkscape:export-filename="safetrainpng"
   inkscape:export-xdpi="5.7600002"
   inkscape:export-ydpi="5.7600002"
   xmlns:inkscape="http://www.inkscape.org/namespaces/inkscape"
   xmlns:sodipodi="http://sodipodi.sourceforge.net/DTD/sodipodi-0.dtd"
   xmlns:xlink="http://www.w3.org/1999/xlink"
   xmlns="http://www.w3.org/2000/svg"
   xmlns:svg="http://www.w3.org/2000/svg"><defs
   id="defs152"><linearGradient
     inkscape:collect="always"
     id="linearGradient1905"><stop
       style="stop-color:#550022;stop-opacity:1;"
       offset="0"
       id="stop1901" /><stop
       style="stop-color:#550022;stop-opacity:0;"
       offset="1"
       id="stop1903" /></linearGradient><linearGradient
     inkscape:collect="always"
     id="linearGradient1660"><stop
       style="stop-color:#550022;stop-opacity:1;"
       offset="0"
       id="stop1656" /><stop
       style="stop-color:#550022;stop-opacity:0;"
       offset="1"
       id="stop1658" /></linearGradient><linearGradient
     inkscape:collect="always"
     id="linearGradient1652"><stop
       style="stop-color:#50162d;stop-opacity:1;"
       offset="0"
       id="stop1648" /><stop
       style="stop-color:#50162d;stop-opacity:0;"
       offset="1"
       id="stop1650" /></linearGradient><linearGradient
     inkscape:collect="always"
     xlink:href="#linearGradient1652"
     id="linearGradient1654"
     x1="-10.157372"
     y1="219.74606"
     x2="354.51706"
     y2="80.268013"
     gradientUnits="userSpaceOnUse"
     gradientTransform="matrix(0.06000001,0,0,0.06000001,-3e-5,0)" /><linearGradient
     inkscape:collect="always"
     xlink:href="#linearGradient1660"
     id="linearGradient1662"
     x1="7.6799641"
     y1="265.33035"
     x2="324.04492"
     y2="140.22128"
     gradientUnits="userSpaceOnUse"
     gradientTransform="matrix(0.06000001,0,0,0.06000001,-3e-5,0)" /><linearGradient
     inkscape:collect="always"
     xlink:href="#linearGradient1652"
     id="linearGradient1741"
     gradientUnits="userSpaceOnUse"
     gradientTransform="matrix(0.06000001,0,0,0.06000001,-3e-5,0)"
     x1="-10.157372"
     y1="219.74606"
     x2="354.51706"
     y2="80.268013" /><linearGradient
     inkscape:collect="always"
     xlink:href="#linearGradient1905"
     id="linearGradient1743"
     gradientUnits="userSpaceOnUse"
     gradientTransform="matrix(0.06000001,0,0,0.06000001,-3e-5,0)"
     x1="7.6799641"
     y1="265.33035"
     x2="324.04492"
     y2="140.22128" /></defs><sodipodi:namedview
   id="namedview150"
   pagecolor="#ffffff"
   bordercolor="#000000"
   borderopacity="0.25"
   inkscape:showpageshadow="2"
   inkscape:pageopacity="0.0"
   inkscape:pagecheckerboard="0"
   inkscape:deskcolor="#d1d1d1"
   showgrid="false"
   inkscape:zoom="20.8125"
   inkscape:cx="27.459459"
   inkscape:cy="24"
   inkscape:window-width="1670"
   inkscape:window-height="1211"
   inkscape:window-x="3390"
   inkscape:window-y="35"
   inkscape:window-maximized="0"
   inkscape:current-layer="g147" />
<g
   id="g147">
	<path
   d="m 17.27907,12.90294 -0.59088,-1.49628 c -0.0819,-0.20748 -0.28236,-0.3438 -0.50544,-0.3438 h -2.0334 c 0.26322,0 0.5079,-0.13548 0.64764,-0.35856 1.00482,-1.60416 1.00482,-3.64146 0,-5.24568 C 14.65725,5.23548 14.41257,5.1 14.14929,5.1 H 13.46847 V 3.2196 h 0.35106 c 0.21696,0 0.39288,-0.17592 0.39288,-0.39288 V 2.3964 c 0,-0.21696 -0.17592,-0.39288 -0.39288,-0.39288 h -2.89104 c -0.21696,0 -0.39288,0.17592 -0.39288,0.39288 v 0.43032 c 0,0.21696 0.17592,0.39288 0.39288,0.39288 h 0.35106 V 5.10012 H 8.94741 V 1.767 c 0,-0.30018 -0.2433,-0.54348 -0.54342,-0.54348 H 0.54339 C 0.24327,1.22352 -3e-5,1.46682 -3e-5,1.767 v 0.8325 c 0,0.30012 0.2433,0.54342 0.54342,0.54342 h 0.60606 v 7.92 H 0.54339 c -0.30012,0 -0.54342,0.2433 -0.54342,0.54342 v 1.49628 c 0,0.30018 0.2433,0.54348 0.54342,0.54348 h 1.18092 v -6e-5 c 0,-1.8459 1.50168,-3.34758 3.34758,-3.34758 1.8459,0 3.34764,1.50168 3.34764,3.34758 v 6e-5 h 1.61952 c 0.31098,-1.07034 1.29978,-1.85514 2.46906,-1.85514 1.16928,0 2.15814,0.7848 2.46912,1.85514 h 1.79634 c 0.17994,0 0.34818,-0.089 0.44934,-0.23778 0.10122,-0.14886 0.12222,-0.33804 0.0562,-0.50538 z M 7.00659,8.20464 c 0,0.2823 -0.22884,0.5112 -0.5112,0.5112 h -3.0285 c -0.2823,0 -0.5112,-0.22884 -0.5112,-0.5112 v -2.5563 c 0,-1.1187 0.90678,-2.02548 2.02542,-2.02548 1.1187,0 2.02548,0.90678 2.02548,2.02548 z"
   id="path143"
   inkscape:highlight-color="#722257"
   style="fill:url(#linearGradient1741);fill-opacity:1;stroke-width:0.06" />
	<path
   d="m 12.50811,12.63084 c -0.9204,0 -1.67262,0.71826 -1.72776,1.62474 -0.35466,0 -2.98722,0 -3.33744,0 0.05,-0.19488 0.0766,-0.39918 0.0766,-0.60966 0,-1.35174 -1.09584,-2.44758 -2.44764,-2.44758 -1.35174,0 -2.44758,1.09584 -2.44758,2.44758 0,1.3518 1.09584,2.44764 2.44758,2.44764 0.78198,0 1.4778,-0.36714 1.92588,-0.93798 1.42506,0 2.4747,0 3.9717,0 0.28776,0.55698 0.86856,0.93798 1.5387,0.93798 0.95628,0 1.73136,-0.77514 1.73136,-1.73136 0,-0.95622 -0.77514,-1.73136 -1.73136,-1.73136 z"
   id="path145"
   style="fill:url(#linearGradient1743);fill-opacity:1;stroke-width:0.06" />
<path
   d="m 17.27907,12.90294 -0.59088,-1.49628 c -0.0819,-0.20748 -0.28236,-0.3438 -0.50544,-0.3438 h -2.0334 c 0.26322,0 0.5079,-0.13548 0.64764,-0.35856 1.00482,-1.60416 1.00482,-3.64146 0,-5.24568 C 14.65725,5.23548 14.41257,5.1 14.14929,5.1 H 13.46847 V 3.2196 h 0.35106 c 0.21696,0 0.39288,-0.17592 0.39288,-0.39288 V 2.3964 c 0,-0.21696 -0.17592,-0.39288 -0.39288,-0.39288 h -2.89104 c -0.21696,0 -0.39288,0.17592 -0.39288,0.39288 v 0.43032 c 0,0.21696 0.17592,0.39288 0.39288,0.39288 h 0.35106 V 5.10012 H 8.94741 V 1.767 c 0,-0.30018 -0.2433,-0.54348 -0.54342,-0.54348 H 0.54339 C 0.24327,1.22352 -3e-5,1.46682 -3e-5,1.767 v 0.8325 c 0,0.30012 0.2433,0.54342 0.54342,0.54342 h 0.60606 v 7.92 H 0.54339 c -0.30012,0 -0.54342,0.2433 -0.54342,0.54342 v 1.49628 c 0,0.30018 0.2433,0.54348 0.54342,0.54348 h 1.18092 v -6e-5 c 0,-1.8459 1.50168,-3.34758 3.34758,-3.34758 1.8459,0 3.34764,1.50168 3.34764,3.34758 v 6e-5 h 1.61952 c 0.31098,-1.07034 1.29978,-1.85514 2.46906,-1.85514 1.16928,0 2.15814,0.7848 2.46912,1.85514 h 1.79634 c 0.17994,0 0.34818,-0.089 0.44934,-0.23778 0.10122,-0.14886 0.12222,-0.33804 0.0562,-0.50538 z M 7.00659,8.20464 c 0,0.2823 -0.22884,0.5112 -0.5112,0.5112 h -3.0285 c -0.2823,0 -0.5112,-0.22884 -0.5112,-0.5112 v -2.5563 c 0,-1.1187 0.90678,-2.02548 2.02542,-2.02548 1.1187,0 2.02548,0.90678 2.02548,2.02548 z"
   id="path1737"
   inkscape:highlight-color="#722257"
   style="fill:url(#linearGradient1654);fill-opacity:1;stroke-width:0.06" /><path
   d="m 12.50811,12.63084 c -0.9204,0 -1.67262,0.71826 -1.72776,1.62474 -0.35466,0 -2.98722,0 -3.33744,0 0.05,-0.19488 0.0766,-0.39918 0.0766,-0.60966 0,-1.35174 -1.09584,-2.44758 -2.44764,-2.44758 -1.35174,0 -2.44758,1.09584 -2.44758,2.44758 0,1.3518 1.09584,2.44764 2.44758,2.44764 0.78198,0 1.4778,-0.36714 1.92588,-0.93798 1.42506,0 2.4747,0 3.9717,0 0.28776,0.55698 0.86856,0.93798 1.5387,0.93798 0.95628,0 1.73136,-0.77514 1.73136,-1.73136 0,-0.95622 -0.77514,-1.73136 -1.73136,-1.73136 z"
   id="path1739"
   style="fill:url(#linearGradient1662);fill-opacity:1;stroke-width:0.06" /><path
   d="m 17.27907,12.90294 -0.59088,-1.49628 c -0.0819,-0.20748 -0.28236,-0.3438 -0.50544,-0.3438 h -2.0334 c 0.26322,0 0.5079,-0.13548 0.64764,-0.35856 1.00482,-1.60416 1.00482,-3.64146 0,-5.24568 C 14.65725,5.23548 14.41257,5.1 14.14929,5.1 H 13.46847 V 3.2196 h 0.35106 c 0.21696,0 0.39288,-0.17592 0.39288,-0.39288 V 2.3964 c 0,-0.21696 -0.17592,-0.39288 -0.39288,-0.39288 h -2.89104 c -0.21696,0 -0.39288,0.17592 -0.39288,0.39288 v 0.43032 c 0,0.21696 0.17592,0.39288 0.39288,0.39288 h 0.35106 V 5.10012 H 8.94741 V 1.767 c 0,-0.30018 -0.2433,-0.54348 -0.54342,-0.54348 H 0.54339 C 0.24327,1.22352 -3e-5,1.46682 -3e-5,1.767 v 0.8325 c 0,0.30012 0.2433,0.54342 0.54342,0.54342 h 0.60606 v 7.92 H 0.54339 c -0.30012,0 -0.54342,0.2433 -0.54342,0.54342 v 1.49628 c 0,0.30018 0.2433,0.54348 0.54342,0.54348 h 1.18092 v -6e-5 c 0,-1.8459 1.50168,-3.34758 3.34758,-3.34758 1.8459,0 3.34764,1.50168 3.34764,3.34758 v 6e-5 h 1.61952 c 0.31098,-1.07034 1.29978,-1.85514 2.46906,-1.85514 1.16928,0 2.15814,0.7848 2.46912,1.85514 h 1.79634 c 0.17994,0 0.34818,-0.089 0.44934,-0.23778 0.10122,-0.14886 0.12222,-0.33804 0.0562,-0.50538 z M 7.00659,8.20464 c 0,0.2823 -0.22884,0.5112 -0.5112,0.5112 h -3.0285 c -0.2823,0 -0.5112,-0.22884 -0.5112,-0.5112 v -2.5563 c 0,-1.1187 0.90678,-2.02548 2.02542,-2.02548 1.1187,0 2.02548,0.90678 2.02548,2.02548 z"
   id="path1745"
   inkscape:highlight-color="#722257"
   style="fill:url(#linearGradient1741);fill-opacity:1;stroke-width:0.06" /><path
   d="m 12.50811,12.63084 c -0.9204,0 -1.67262,0.71826 -1.72776,1.62474 -0.35466,0 -2.98722,0 -3.33744,0 0.05,-0.19488 0.0766,-0.39918 0.0766,-0.60966 0,-1.35174 -1.09584,-2.44758 -2.44764,-2.44758 -1.35174,0 -2.44758,1.09584 -2.44758,2.44758 0,1.3518 1.09584,2.44764 2.44758,2.44764 0.78198,0 1.4778,-0.36714 1.92588,-0.93798 1.42506,0 2.4747,0 3.9717,0 0.28776,0.55698 0.86856,0.93798 1.5387,0.93798 0.95628,0 1.73136,-0.77514 1.73136,-1.73136 0,-0.95622 -0.77514,-1.73136 -1.73136,-1.73136 z"
   id="path1747"
   style="fill:url(#linearGradient1743);fill-opacity:1;stroke-width:0.06" /><path
   d="m 17.27907,12.90294 -0.59088,-1.49628 c -0.0819,-0.20748 -0.28236,-0.3438 -0.50544,-0.3438 h -2.0334 c 0.26322,0 0.5079,-0.13548 0.64764,-0.35856 1.00482,-1.60416 1.00482,-3.64146 0,-5.24568 C 14.65725,5.23548 14.41257,5.1 14.14929,5.1 H 13.46847 V 3.2196 h 0.35106 c 0.21696,0 0.39288,-0.17592 0.39288,-0.39288 V 2.3964 c 0,-0.21696 -0.17592,-0.39288 -0.39288,-0.39288 h -2.89104 c -0.21696,0 -0.39288,0.17592 -0.39288,0.39288 v 0.43032 c 0,0.21696 0.17592,0.39288 0.39288,0.39288 h 0.35106 V 5.10012 H 8.94741 V 1.767 c 0,-0.30018 -0.2433,-0.54348 -0.54342,-0.54348 H 0.54339 C 0.24327,1.22352 -3e-5,1.46682 -3e-5,1.767 v 0.8325 c 0,0.30012 0.2433,0.54342 0.54342,0.54342 h 0.60606 v 7.92 H 0.54339 c -0.30012,0 -0.54342,0.2433 -0.54342,0.54342 v 1.49628 c 0,0.30018 0.2433,0.54348 0.54342,0.54348 h 1.18092 v -6e-5 c 0,-1.8459 1.50168,-3.34758 3.34758,-3.34758 1.8459,0 3.34764,1.50168 3.34764,3.34758 v 6e-5 h 1.61952 c 0.31098,-1.07034 1.29978,-1.85514 2.46906,-1.85514 1.16928,0 2.15814,0.7848 2.46912,1.85514 h 1.79634 c 0.17994,0 0.34818,-0.089 0.44934,-0.23778 0.10122,-0.14886 0.12222,-0.33804 0.0562,-0.50538 z M 7.00659,8.20464 c 0,0.2823 -0.22884,0.5112 -0.5112,0.5112 h -3.0285 c -0.2823,0 -0.5112,-0.22884 -0.5112,-0.5112 v -2.5563 c 0,-1.1187 0.90678,-2.02548 2.02542,-2.02548 1.1187,0 2.02548,0.90678 2.02548,2.02548 z"
   id="path1749"
   inkscape:highlight-color="#722257"
   style="fill:url(#linearGradient1654);fill-opacity:1;stroke-width:0.06" /><path
   d="m 12.50811,12.63084 c -0.9204,0 -1.67262,0.71826 -1.72776,1.62474 -0.35466,0 -2.98722,0 -3.33744,0 0.05,-0.19488 0.0766,-0.39918 0.0766,-0.60966 0,-1.35174 -1.09584,-2.44758 -2.44764,-2.44758 -1.35174,0 -2.44758,1.09584 -2.44758,2.44758 0,1.3518 1.09584,2.44764 2.44758,2.44764 0.78198,0 1.4778,-0.36714 1.92588,-0.93798 1.42506,0 2.4747,0 3.9717,0 0.28776,0.55698 0.86856,0.93798 1.5387,0.93798 0.95628,0 1.73136,-0.77514 1.73136,-1.73136 0,-0.95622 -0.77514,-1.73136 -1.73136,-1.73136 z"
   id="path1751"
   style="fill:url(#linearGradient1662);fill-opacity:1;stroke-width:0.06" /><path
   d="m 17.27907,12.90294 -0.59088,-1.49628 c -0.0819,-0.20748 -0.28236,-0.3438 -0.50544,-0.3438 h -2.0334 c 0.26322,0 0.5079,-0.13548 0.64764,-0.35856 1.00482,-1.60416 1.00482,-3.64146 0,-5.24568 C 14.65725,5.23548 14.41257,5.1 14.14929,5.1 H 13.46847 V 3.2196 h 0.35106 c 0.21696,0 0.39288,-0.17592 0.39288,-0.39288 V 2.3964 c 0,-0.21696 -0.17592,-0.39288 -0.39288,-0.39288 h -2.89104 c -0.21696,0 -0.39288,0.17592 -0.39288,0.39288 v 0.43032 c 0,0.21696 0.17592,0.39288 0.39288,0.39288 h 0.35106 V 5.10012 H 8.94741 V 1.767 c 0,-0.30018 -0.2433,-0.54348 -0.54342,-0.54348 H 0.54339 C 0.24327,1.22352 -3e-5,1.46682 -3e-5,1.767 v 0.8325 c 0,0.30012 0.2433,0.54342 0.54342,0.54342 h 0.60606 v 7.92 H 0.54339 c -0.30012,0 -0.54342,0.2433 -0.54342,0.54342 v 1.49628 c 0,0.30018 0.2433,0.54348 0.54342,0.54348 h 1.18092 v -6e-5 c 0,-1.8459 1.50168,-3.34758 3.34758,-3.34758 1.8459,0 3.34764,1.50168 3.34764,3.34758 v 6e-5 h 1.61952 c 0.31098,-1.07034 1.29978,-1.85514 2.46906,-1.85514 1.16928,0 2.15814,0.7848 2.46912,1.85514 h 1.79634 c 0.17994,0 0.34818,-0.089 0.44934,-0.23778 0.10122,-0.14886 0.12222,-0.33804 0.0562,-0.50538 z M 7.00659,8.20464 c 0,0.2823 -0.22884,0.5112 -0.5112,0.5112 h -3.0285 c -0.2823,0 -0.5112,-0.22884 -0.5112,-0.5112 v -2.5563 c 0,-1.1187 0.90678,-2.02548 2.02542,-2.02548 1.1187,0 2.02548,0.90678 2.02548,2.02548 z"
   id="path1753"
   inkscape:highlight-color="#722257"
   style="fill:#50162d;fill-opacity:0;stroke-width:0.06" /><path
   d="m 12.50811,12.63084 c -0.9204,0 -1.67262,0.71826 -1.72776,1.62474 -0.35466,0 -2.98722,0 -3.33744,0 0.05,-0.19488 0.0766,-0.39918 0.0766,-0.60966 0,-1.35174 -1.09584,-2.44758 -2.44764,-2.44758 -1.35174,0 -2.44758,1.09584 -2.44758,2.44758 0,1.3518 1.09584,2.44764 2.44758,2.44764 0.78198,0 1.4778,-0.36714 1.92588,-0.93798 1.42506,0 2.4747,0 3.9717,0 0.28776,0.55698 0.86856,0.93798 1.5387,0.93798 0.95628,0 1.73136,-0.77514 1.73136,-1.73136 0,-0.95622 -0.77514,-1.73136 -1.73136,-1.73136 z"
   id="path1755"
   style="fill:#550022;fill-opacity:0;stroke-width:0.06" /><path
   d="m 17.27907,12.90294 -0.59088,-1.49628 c -0.0819,-0.20748 -0.28236,-0.3438 -0.50544,-0.3438 h -2.0334 c 0.26322,0 0.5079,-0.13548 0.64764,-0.35856 1.00482,-1.60416 1.00482,-3.64146 0,-5.24568 C 14.65725,5.23548 14.41257,5.1 14.14929,5.1 H 13.46847 V 3.2196 h 0.35106 c 0.21696,0 0.39288,-0.17592 0.39288,-0.39288 V 2.3964 c 0,-0.21696 -0.17592,-0.39288 -0.39288,-0.39288 h -2.89104 c -0.21696,0 -0.39288,0.17592 -0.39288,0.39288 v 0.43032 c 0,0.21696 0.17592,0.39288 0.39288,0.39288 h 0.35106 V 5.10012 H 8.94741 V 1.767 c 0,-0.30018 -0.2433,-0.54348 -0.54342,-0.54348 H 0.54339 C 0.24327,1.22352 -3e-5,1.46682 -3e-5,1.767 v 0.8325 c 0,0.30012 0.2433,0.54342 0.54342,0.54342 h 0.60606 v 7.92 H 0.54339 c -0.30012,0 -0.54342,0.2433 -0.54342,0.54342 v 1.49628 c 0,0.30018 0.2433,0.54348 0.54342,0.54348 h 1.18092 v -6e-5 c 0,-1.8459 1.50168,-3.34758 3.34758,-3.34758 1.8459,0 3.34764,1.50168 3.34764,3.34758 v 6e-5 h 1.61952 c 0.31098,-1.07034 1.29978,-1.85514 2.46906,-1.85514 1.16928,0 2.15814,0.7848 2.46912,1.85514 h 1.79634 c 0.17994,0 0.34818,-0.089 0.44934,-0.23778 0.10122,-0.14886 0.12222,-0.33804 0.0562,-0.50538 z M 7.00659,8.20464 c 0,0.2823 -0.22884,0.5112 -0.5112,0.5112 h -3.0285 c -0.2823,0 -0.5112,-0.22884 -0.5112,-0.5112 v -2.5563 c 0,-1.1187 0.90678,-2.02548 2.02542,-2.02548 1.1187,0 2.02548,0.90678 2.02548,2.02548 z"
   id="path1757"
   inkscape:highlight-color="#722257"
   style="fill:#50162d;fill-opacity:0;stroke-width:0.06" /><path
   d="m 12.50811,12.63084 c -0.9204,0 -1.67262,0.71826 -1.72776,1.62474 -0.35466,0 -2.98722,0 -3.33744,0 0.05,-0.19488 0.0766,-0.39918 0.0766,-0.60966 0,-1.35174 -1.09584,-2.44758 -2.44764,-2.44758 -1.35174,0 -2.44758,1.09584 -2.44758,2.44758 0,1.3518 1.09584,2.44764 2.44758,2.44764 0.78198,0 1.4778,-0.36714 1.92588,-0.93798 1.42506,0 2.4747,0 3.9717,0 0.28776,0.55698 0.86856,0.93798 1.5387,0.93798 0.95628,0 1.73136,-0.77514 1.73136,-1.73136 0,-0.95622 -0.77514,-1.73136 -1.73136,-1.73136 z"
   id="path1759"
   style="fill:#550022;fill-opacity:0;stroke-width:0.06" /></g>
</svg>
